<?xml version="1.0" encoding="UTF-8"?>
<svg width="96px" height="78px" viewBox="0 0 96 78" version="1.1" xmlns="http://www.w3.org/2000/svg" xmlns:xlink="http://www.w3.org/1999/xlink">
    <!-- Generator: Sketch 50.2 (55047) - http://www.bohemiancoding.com/sketch -->
    <title>Group 7</title>
    <desc>Created with Sketch.</desc>
    <defs></defs>
    <g id="News/News-Detail" stroke="none" stroke-width="1" fill="none" fill-rule="evenodd">
        <g id="01-News-Desktop" transform="translate(-879.000000, -644.000000)" fill-rule="nonzero">
            <g id="Group-7" transform="translate(879.000000, 644.000000)">
                <path d="M24.8037902,42.0369393 C28.7004778,40.1126788 32.7831065,38.580672 36.9900343,37.4640501 C39.6084808,36.7618946 42.2696895,36.2260049 44.9573599,35.8596636 C50.1175995,35.143099 55.3204649,34.7676499 60.5312857,34.7358179 C61.6291456,34.7358179 62.7348472,34.7358179 63.8405489,34.7358179 C74.9022182,35.0740041 85.8041963,37.4392907 95.9921581,41.7114116 L95.9921581,39.7272427 C85.0135599,34.5653034 71.0158471,31.4805409 56.163372,31.0542546 C54.8929913,31.0542546 53.6147688,31 52.3600719,31 C48.6822415,31 45.0828296,31.1550132 41.6088874,31.4572889 C41.6088874,31.4572889 36.0098023,32.0153364 32.7005391,32.5966359 C29.4515916,33.1453644 26.2344947,33.8646094 23.0628982,34.7513193 C20.7675048,35.4252045 18.5109382,36.2221184 16.3032184,37.1385224 C13.9979679,38.0435658 11.7601103,39.1080427 9.60627348,40.3240435 C3.74840712,43.842843 0.196046398,48.1522098 0,52.8878628 C0,53.0273747 0,53.1823879 0,53.3374011 C0,56.4376649 1.34095736,59.4371702 4.06208136,62.3049142 C12.3509231,71.1639182 31.9634047,77.29469 53.9990198,77.9379947 C55.3870283,77.9379947 56.7671949,78 58.1316778,78 C72.8900506,78 86.4486195,75.6748021 96,71.4816953 L96,69.4432718 L95.8823722,69.4432718 C86.8799216,72.7450528 75.3523934,74.651715 64.5698415,74.651715 C63.7072374,74.651715 62.8367914,74.651715 61.9820291,74.651715 C42.9106355,74.0936675 25.9643849,68.8154683 18.8518216,61.2120712 C16.5776834,58.7938654 15.4406143,56.2749011 15.4406143,53.724934 C15.4327904,53.5958721 15.4327904,53.466463 15.4406143,53.3374011 C15.4620265,51.7584927 15.949931,50.2202043 16.8443065,48.9117744 C17.8029942,47.5275064 18.9243656,46.2604713 20.1849371,45.1372032 C21.5384127,43.855889 23.0996742,42.80794 24.8037902,42.0369393 Z" id="Shape" fill="#00467F"></path>
                <path d="M31.2304057,25.1696147 C29.5421418,25.7768824 27.9177653,26.5519518 26.3811859,27.4834144 C23.4936246,29.4485593 21.8144449,31.9049905 21.40642,34.7576203 C21.3341569,35.2189265 21.2974291,35.6851975 21.2965671,36.1522393 C21.2965671,47.0556241 39.1005796,60.1460252 62.287383,65.9226004 C68.7882564,67.5458201 75.4584445,68.3758399 82.1550602,68.3948795 C86.0374152,68.4128281 89.9135241,68.0786795 93.7366919,67.3964591 L94.0740972,67.3409913 C94.4507356,67.2696756 94.7489077,67.2142078 95,67.1825119 L95,69.0525692 L94.5056621,69.2268966 C89.6529695,70.4732117 84.6586265,71.0673563 79.651984,70.9939422 C71.1645953,70.9021578 62.7187793,69.7821535 54.4956754,67.6579502 C27.644494,60.9780422 7,45.6768531 7,32.887563 C7.01293882,32.3412907 7.05747901,31.7962489 7.13339278,31.2552248 C7.61988408,27.8003732 9.64431565,24.8764277 13.1046812,22.5388561 C16.2617278,20.5096334 19.7623528,19.0859118 23.4308515,18.3391512 C23.4308515,18.3391512 26.6950513,17.6022218 29.4727597,17.3090349 C32.2504681,17.0158479 35.5774409,17 35.5774409,17 C36.0717789,17 36.5582702,17 37.0683014,17 C45.2727308,17.0718571 53.4390975,18.1359675 61.3928667,20.1695886 C73.9945609,23.2995574 85.717432,28.5848464 94.9764601,35.2251346 L94.9764601,37.7291096 C86.7826056,32.084466 77.6660826,27.9453519 68.0468123,25.5024215 C61.1559632,23.7333079 54.0804309,22.8022415 46.9707535,22.7290314 C43.4707172,22.708959 39.9765959,23.0220192 36.5347303,23.6640601 C36.5347303,23.6640601 33.4902363,24.3851415 31.2304057,25.1696147 Z" id="Shape" fill="#56A0D3"></path>
                <path d="M72.4919288,10.6472409 C60.5220429,3.77147688 48.489364,0.00691829054 39.4000998,0.00691829054 C36.5672902,-0.0638531604 33.7474007,0.408914737 31.0957461,1.39918273 C27.6028941,2.8147812 25.3894463,5.09373919 24.4397046,8.48495312 C24.1423104,9.60432747 23.9945306,10.7575528 24.0001547,11.9150571 C24.060599,13.762318 24.3694377,15.5933351 24.9185,17.3596667 C25.9601088,20.6253848 27.4581397,23.7304513 29.3689429,26.5843908 C34.0784062,34.160176 46.6369751,46.4883276 60.1845313,54.2585632 C72.4212869,61.2587755 84.1870961,65 94.218253,65 L94.4301789,65 L96,64.9533319 L96,63.281059 L94.0141763,63.2110569 C85.5685387,62.6199278 75.7807041,59.4387203 67.1466879,54.4685696 C52.2333874,45.9127546 40.7422968,33.8723895 37.108161,24.0409803 C36.5789501,22.5900024 36.202803,21.0886153 35.9857389,19.5608445 C35.8101702,18.0837713 35.9032145,16.5874716 36.2604576,15.1429328 C37.0456407,12.4364368 39.0867617,10.2635502 41.7548315,9.29386654 C44.0115644,8.45561455 46.409656,8.05427184 48.8190265,8.11160847 C56.668132,8.11160847 67.0211023,11.3705962 77.3662234,17.3129986 C84.284492,21.3718619 90.5628999,26.4167097 96,32.2856748 L96,29.2211374 C89.132491,21.9135331 81.2104913,15.654304 72.4919288,10.6472409 Z" id="Shape" fill="#ACD4F1"></path>
            </g>
        </g>
    </g>
</svg>